<mxfile host="app.diagrams.net" modified="2024-02-03T11:50:00.090Z" agent="Mozilla/5.0 (Windows NT 10.0; Win64; x64) AppleWebKit/537.36 (KHTML, like Gecko) Chrome/121.0.0.0 Safari/537.36" etag="_zcHkw5if5K600VZgHct" version="23.1.0" type="github">
  <diagram name="Page-1" id="sPdI-ZN4rikgfFWwK67m">
    <mxGraphModel dx="794" dy="459" grid="1" gridSize="10" guides="1" tooltips="1" connect="1" arrows="1" fold="1" page="1" pageScale="1" pageWidth="850" pageHeight="1100" math="0" shadow="0">
      <root>
        <mxCell id="0" />
        <mxCell id="1" parent="0" />
        <mxCell id="xvcMH0QFxnp184opOmmT-4" style="edgeStyle=orthogonalEdgeStyle;rounded=0;orthogonalLoop=1;jettySize=auto;html=1;exitX=0.5;exitY=1;exitDx=0;exitDy=0;" edge="1" parent="1" source="xvcMH0QFxnp184opOmmT-1">
          <mxGeometry relative="1" as="geometry">
            <mxPoint x="205" y="280" as="targetPoint" />
          </mxGeometry>
        </mxCell>
        <mxCell id="xvcMH0QFxnp184opOmmT-5" style="edgeStyle=orthogonalEdgeStyle;rounded=0;orthogonalLoop=1;jettySize=auto;html=1;exitX=0;exitY=0.5;exitDx=0;exitDy=0;" edge="1" parent="1" source="xvcMH0QFxnp184opOmmT-1">
          <mxGeometry relative="1" as="geometry">
            <mxPoint x="120" y="195" as="targetPoint" />
          </mxGeometry>
        </mxCell>
        <mxCell id="xvcMH0QFxnp184opOmmT-1" value="Is it cold outside?" style="rhombus;whiteSpace=wrap;html=1;" vertex="1" parent="1">
          <mxGeometry x="160" y="150" width="90" height="90" as="geometry" />
        </mxCell>
        <mxCell id="xvcMH0QFxnp184opOmmT-6" style="edgeStyle=orthogonalEdgeStyle;rounded=0;orthogonalLoop=1;jettySize=auto;html=1;exitX=0.5;exitY=1;exitDx=0;exitDy=0;" edge="1" parent="1" source="xvcMH0QFxnp184opOmmT-2">
          <mxGeometry relative="1" as="geometry">
            <mxPoint x="365" y="280" as="targetPoint" />
          </mxGeometry>
        </mxCell>
        <mxCell id="xvcMH0QFxnp184opOmmT-7" style="edgeStyle=orthogonalEdgeStyle;rounded=0;orthogonalLoop=1;jettySize=auto;html=1;exitX=0.5;exitY=0;exitDx=0;exitDy=0;" edge="1" parent="1" source="xvcMH0QFxnp184opOmmT-2">
          <mxGeometry relative="1" as="geometry">
            <mxPoint x="365" y="110" as="targetPoint" />
          </mxGeometry>
        </mxCell>
        <mxCell id="xvcMH0QFxnp184opOmmT-2" value="Is my car&lt;br&gt;low on gas?" style="rhombus;whiteSpace=wrap;html=1;" vertex="1" parent="1">
          <mxGeometry x="320" y="150" width="90" height="90" as="geometry" />
        </mxCell>
        <mxCell id="xvcMH0QFxnp184opOmmT-8" style="edgeStyle=orthogonalEdgeStyle;rounded=0;orthogonalLoop=1;jettySize=auto;html=1;exitX=1;exitY=0.5;exitDx=0;exitDy=0;" edge="1" parent="1" source="xvcMH0QFxnp184opOmmT-3">
          <mxGeometry relative="1" as="geometry">
            <mxPoint x="600" y="195" as="targetPoint" />
          </mxGeometry>
        </mxCell>
        <mxCell id="xvcMH0QFxnp184opOmmT-9" style="edgeStyle=orthogonalEdgeStyle;rounded=0;orthogonalLoop=1;jettySize=auto;html=1;exitX=0.5;exitY=1;exitDx=0;exitDy=0;" edge="1" parent="1" source="xvcMH0QFxnp184opOmmT-3">
          <mxGeometry relative="1" as="geometry">
            <mxPoint x="515" y="280" as="targetPoint" />
          </mxGeometry>
        </mxCell>
        <mxCell id="xvcMH0QFxnp184opOmmT-3" value="Do I have&lt;br&gt;work today?" style="rhombus;whiteSpace=wrap;html=1;" vertex="1" parent="1">
          <mxGeometry x="470" y="150" width="90" height="90" as="geometry" />
        </mxCell>
        <mxCell id="xvcMH0QFxnp184opOmmT-11" value="Yes" style="text;html=1;strokeColor=none;fillColor=none;align=center;verticalAlign=middle;whiteSpace=wrap;rounded=0;" vertex="1" parent="1">
          <mxGeometry x="120" y="170" width="60" height="30" as="geometry" />
        </mxCell>
        <mxCell id="xvcMH0QFxnp184opOmmT-12" value="Yes" style="text;html=1;strokeColor=none;fillColor=none;align=center;verticalAlign=middle;whiteSpace=wrap;rounded=0;" vertex="1" parent="1">
          <mxGeometry x="350" y="120" width="60" height="30" as="geometry" />
        </mxCell>
        <mxCell id="xvcMH0QFxnp184opOmmT-13" value="Yes" style="text;html=1;strokeColor=none;fillColor=none;align=center;verticalAlign=middle;whiteSpace=wrap;rounded=0;" vertex="1" parent="1">
          <mxGeometry x="540" y="170" width="60" height="30" as="geometry" />
        </mxCell>
        <mxCell id="xvcMH0QFxnp184opOmmT-14" value="No" style="text;html=1;strokeColor=none;fillColor=none;align=center;verticalAlign=middle;whiteSpace=wrap;rounded=0;" vertex="1" parent="1">
          <mxGeometry x="190" y="250" width="60" height="30" as="geometry" />
        </mxCell>
        <mxCell id="xvcMH0QFxnp184opOmmT-15" value="No" style="text;html=1;strokeColor=none;fillColor=none;align=center;verticalAlign=middle;whiteSpace=wrap;rounded=0;" vertex="1" parent="1">
          <mxGeometry x="350" y="250" width="60" height="30" as="geometry" />
        </mxCell>
        <mxCell id="xvcMH0QFxnp184opOmmT-16" value="No" style="text;html=1;strokeColor=none;fillColor=none;align=center;verticalAlign=middle;whiteSpace=wrap;rounded=0;" vertex="1" parent="1">
          <mxGeometry x="500" y="250" width="60" height="30" as="geometry" />
        </mxCell>
      </root>
    </mxGraphModel>
  </diagram>
</mxfile>
